<svg xmlns="http://www.w3.org/2000/svg" width="1200" height="630" viewBox="0 0 1200 630" role="img" aria-label="Kansi AI social preview">
  <defs>
    <linearGradient id="bg" x1="0%" y1="0%" x2="100%" y2="100%">
      <stop offset="0%" stop-color="#fff8f0"/>
      <stop offset="100%" stop-color="#fde7d3"/>
    </linearGradient>
    <radialGradient id="orb1" cx="20%" cy="25%" r="55%">
      <stop offset="0%" stop-color="#e8b4b8" stop-opacity=".45"/>
      <stop offset="100%" stop-color="#e8b4b8" stop-opacity="0"/>
    </radialGradient>
    <radialGradient id="orb2" cx="80%" cy="22%" r="50%">
      <stop offset="0%" stop-color="#a8c5da" stop-opacity=".35"/>
      <stop offset="100%" stop-color="#a8c5da" stop-opacity="0"/>
    </radialGradient>
    <linearGradient id="card" x1="0%" y1="0%" x2="100%" y2="100%">
      <stop offset="0%" stop-color="rgba(255,255,255,.75)"/>
      <stop offset="100%" stop-color="rgba(255,255,255,.45)"/>
    </linearGradient>
    <linearGradient id="accent" x1="0%" y1="0%" x2="100%" y2="100%">
      <stop offset="0%" stop-color="#d4a574"/>
      <stop offset="100%" stop-color="#a8c5da"/>
    </linearGradient>
  </defs>
  <rect width="1200" height="630" fill="url(#bg)"/>
  <rect width="1200" height="630" fill="url(#orb1)"/>
  <rect width="1200" height="630" fill="url(#orb2)"/>
  <rect x="90" y="82" width="1020" height="466" rx="34" fill="#ffffff" fill-opacity=".48" stroke="#ffffff" stroke-opacity=".7"/>
  <rect x="150" y="150" width="124" height="124" rx="34" fill="#fff8f0" stroke="#f2d4b7"/>
  <path d="M212 172c-24.3 0-40 16.6-40 38.5 0 13.5 6.4 24.9 16.8 31.1v18.5l17.7-10.2c1.7.2 3.5.4 5.5.4 24.3 0 40-16.6 40-38.2S236.3 172 212 172Z" fill="none" stroke="url(#accent)" stroke-width="6" stroke-linecap="round" stroke-linejoin="round"/>
  <path d="M194 207h36M194 224h22" fill="none" stroke="#3d2c2e" stroke-width="6" stroke-linecap="round"/>
  <text x="320" y="212" fill="#3d2c2e" font-size="70" font-family="Georgia, serif" font-weight="700">Kansi AI</text>
  <text x="320" y="280" fill="#6b5b5e" font-size="33" font-family="'Trebuchet MS', sans-serif">Secure mental health check-ins and supportive AI-guided conversation.</text>
  <text x="150" y="386" fill="#3d2c2e" font-size="44" font-family="'Trebuchet MS', sans-serif" font-weight="700">Private by default</text>
  <text x="150" y="434" fill="#6b5b5e" font-size="28" font-family="'Trebuchet MS', sans-serif">Argon2-hashed passwords, CSRF protection, strict headers, and</text>
  <text x="150" y="474" fill="#6b5b5e" font-size="28" font-family="'Trebuchet MS', sans-serif">supportive chat with local screening insights.</text>
  <rect x="150" y="506" width="280" height="18" rx="9" fill="#ffffff" fill-opacity=".55"/>
  <rect x="150" y="506" width="182" height="18" rx="9" fill="url(#accent)"/>
</svg>
